<?xml version="1.0" encoding="iso-8859-1"?>
<!-- Generator: Adobe Illustrator 19.0.0, SVG Export Plug-In . SVG Version: 6.00 Build 0)  -->
<svg version="1.1" id="Capa_1" xmlns="http://www.w3.org/2000/svg" xmlns:xlink="http://www.w3.org/1999/xlink" x="0px" y="0px"
	 viewBox="0 0 512.003 512.003" style="enable-background:new 0 0 512.003 512.003;" xml:space="preserve">
<g>
	<g>
		<path d="M338.635,205.909c-14.994,0-27.192,12.198-27.192,27.191s12.199,27.191,27.192,27.191
			c14.993,0,27.191-12.198,27.191-27.191S353.628,205.909,338.635,205.909z M338.635,245.29c-6.723,0-12.192-5.469-12.192-12.191
			s5.47-12.191,12.192-12.191c6.722,0,12.191,5.469,12.191,12.191S345.357,245.29,338.635,245.29z"/>
	</g>
</g>
<g>
	<g>
		<path d="M252.417,315.281c-13.419,0-24.336,10.917-24.336,24.336c0,13.418,10.917,24.335,24.336,24.335
			c13.418,0,24.335-10.917,24.335-24.335C276.752,326.198,265.835,315.281,252.417,315.281z M252.417,348.952
			c-5.148,0-9.336-4.187-9.336-9.335c0-5.147,4.188-9.336,9.336-9.336c5.147,0,9.335,4.188,9.335,9.336
			S257.564,348.952,252.417,348.952z"/>
	</g>
</g>
<g>
	<g>
		<path d="M511.811,257.096c-2.943-22.048-39.279-32.866-65.156-37.803c3.713-3.602,7.292-7.263,10.616-10.887
			c24.5-26.711,33.216-47.491,25.908-61.762c-11.511-22.477-58.443-17.056-84.679-12.02c3.463-13.123,5.895-26.057,6.961-37.391
			c2.371-25.193-2.088-41.364-13.252-48.063c-13.748-8.249-34.695-0.477-63.361,21.703c-36.415,28.176-51.362,55.839-52.246,57.747
			c-3.744-0.818-7.614-1.251-11.564-1.251c-27.67,0-50.578,20.708-54.082,47.437c-32.749,6.452-72.757,17.425-119.138,35.813
			l-59.491,7.465c-19.448,2.44-33.607,19.668-32.235,39.221l3.636,51.81c1.064,15.161,12.456,27.342,27.138,29.706l3.654,8.799
			c2.275,5.479,7.371,9.04,13.298,9.294c0.225,0.009,9.692,0.44,14.042-8.126l4.248-8.18l24.909,1.104l3.495,8.416
			c2.275,5.479,7.371,9.04,13.298,9.293c0.224,0.01,9.422,0.344,14.041-8.126l4.171-8.032l25.05,1.11l3.43,8.261
			c0.55,1.325,1.268,2.534,2.12,3.615l-1.584,0.434l-5.713-6.779c-3.823-4.537-9.755-6.393-15.483-4.846
			c-5.727,1.549-9.917,6.142-10.934,11.985l-1.541,8.855l-24.183,6.619l-5.808-6.893c-3.823-4.536-9.755-6.393-15.483-4.846
			c-5.727,1.549-9.917,6.142-10.934,11.986l-1.566,9l-25.442,6.963c-15.386,4.21-25.339,18.78-23.667,34.645l2.157,20.463
			c0.721,6.843,8.381,24.396,29.075,21.987l243.355-41.979c2.577-0.401,36.333-6.025,63.78-28.982
			c35.417,23.36,108.484,16.953,115.945,15.313c13.528-2.975,22.228-8.727,25.856-17.096c10.543-24.32-27.277-59.17-48.764-76.42
			c7.269-3.098,14.463-6.492,21.074-10.001c13.475-7.153,24.145-14.414,31.712-21.58
			C508.531,275.552,513.019,266.138,511.811,257.096z M338.222,82.582c16.27-12.281,37.585-25.761,46.269-20.552
			c11.147,6.689,7.831,48.196-7.241,90.638c-1.386,3.903,0.654,8.191,4.558,9.577c0.83,0.295,7.554,0.879,9.577-4.558
			c0.828-2.224,1.558-4.494,2.3-6.762c38.593-8.565,70.954-7.576,76.143,2.556c4.619,9.019-9.833,29.762-23.611,44.784
			c-12.334,13.447-26.902,26.028-38.411,34.358c-0.258-37.927-31.183-68.706-69.17-68.706c-7.248,0-14.294,1.119-21.06,3.286
			c-4.074-14.552-13.992-26.461-26.841-33.354C291.255,132.8,307.726,105.603,338.222,82.582z M292.014,254.004
			c3.039,6.287,8.918,4.211,9.917,3.761c3.777-1.699,5.461-6.14,3.761-9.917c-2.093-4.649-3.154-9.611-3.154-14.748
			c0-3.744,0.578-7.429,1.708-10.962c6.244-5.179,10.751-11.37,13.484-18.42c6.131-4.375,13.338-6.699,20.89-6.699
			c19.896,0,36.082,16.186,36.082,36.081c0,19.895-16.186,36.081-36.082,36.081c-4.434,0-8.762-0.797-12.864-2.368
			c-3.865-1.48-8.205,0.453-9.687,4.321c-1.481,3.868,0.453,8.205,4.321,9.687c5.821,2.229,11.954,3.36,18.229,3.36
			c28.167,0,51.082-22.915,51.082-51.081c0-28.166-22.915-51.081-51.082-51.081c-6.149,0-12.14,1.081-17.773,3.178
			c-0.019-1.068-0.067-2.148-0.146-3.241c5.73-2.015,11.738-3.037,17.933-3.037c29.876,0,54.182,24.306,54.182,54.182
			c0,29.876-24.304,54.181-54.18,54.181c-29.822,0-54.09-24.22-54.178-54.021c1.058-0.403,2.09-0.822,3.104-1.251
			C287.553,232.373,286.795,243.208,292.014,254.004z M265.039,142.367c15.959,0,30.156,9.663,36.314,23.857
			c-13.716-0.528-39.064-0.179-74.596,5.713C231.196,154.945,246.675,142.367,265.039,142.367z M305.622,181.509
			c1.304,12.186-2.181,21.632-10.574,28.768c-17.583,14.948-55.952,20.311-110.959,15.508c-25.578-2.234-48.992-6.177-65.14-9.418
			C219.839,179.861,286.716,180.388,305.622,181.509z M203.539,264.043c11.126,0,21.612-7.5,20.123-21.558
			c7.504-0.073,14.583-0.403,21.239-0.987c0,28.869-18.546,42.136-41.362,42.136c-22.816,0-41.378-18.563-41.378-41.378
			c0-1.237,0.074-2.468,0.182-3.694c5.564,0.687,11.275,1.317,17.073,1.86c1.413,0.132,2.805,0.253,4.198,0.372
			C183.097,258.637,192.413,264.043,203.539,264.043z M198.761,241.869c3.298,0.181,6.529,0.323,9.696,0.426
			c1.319,4.177-2.064,6.748-4.919,6.748C200.683,249.043,197.404,246.373,198.761,241.869z M15.373,260.771
			c5.789,1.316,10.076,5.846,10.076,11.232c0,4.895-3.54,9.085-8.53,10.799L15.373,260.771z M35.276,324.224
			c-7.815-0.346-14.287-5.826-16.108-13.192l191.723,10.609c-1.405,3.233-2.438,6.662-3.056,10.232L35.276,324.224z M41.911,403.195
			l168.73-46.18c1.897,4.539,4.519,8.699,7.711,12.35L29.201,421.799C28.303,413.279,33.648,405.456,41.911,403.195z
			 M286.539,409.025c-0.05,0.008-0.1,0.016-0.15,0.024L42.966,451.04c-9.262,0.793-11.316-6.007-11.608-8.778l-0.526-4.986
			l202.658-56.564c5.763,2.665,12.171,4.163,18.926,4.163c24.955,0,45.258-20.303,45.258-45.258
			c0-24.956-20.303-45.259-45.258-45.259c-12.24,0-23.353,4.892-31.508,12.814L23.676,296.259
			c9.88-4.189,16.772-13.482,16.772-24.256c0-13.095-10.18-24.005-23.537-26.214c3.034-6.784,9.428-11.838,17.284-12.824
			l39.636-4.974l4.741,49.406c0.373,3.88,3.637,6.784,7.457,6.784c0.239,0,8.3-1.127,7.475-8.218l-4.783-49.841l4.037-0.507
			c7.115,2.233,28.212,7.021,54.714,10.93c-0.191,1.894-0.312,3.798-0.312,5.709c0,31.087,25.291,56.378,56.378,56.378
			c31.087,0,56.378-25.291,56.378-56.378c0-0.872-0.025-1.744-0.065-2.616c3.394-0.56,6.656-1.199,9.773-1.922
			c2.387,36,32.417,64.564,69.011,64.564c11.404,0,22.162-2.791,31.655-7.699c5.382,27.717,1.836,51.315-10.6,70.25
			C335.923,401.025,287.021,408.95,286.539,409.025z M222.158,339.617c0-16.685,13.574-30.259,30.258-30.259
			c16.684,0,30.258,13.574,30.258,30.259s-13.574,30.258-30.258,30.258C235.732,369.875,222.158,356.302,222.158,339.617z
			 M466.652,356.958c11.264,13.175,16.511,24.446,14.038,30.152c-2.52,5.811-17.016,11.973-49.585,10.22
			c-26.052-1.403-51.21-4.318-67.186-13.401c2.929-3.315,5.697-6.894,8.241-10.757c8.15-12.375,13.108-26.281,14.866-41.61
			c1.487,0.115,17.201,3.063,42.477-8.545C443.934,333.818,457.244,345.953,466.652,356.958z M459.73,293.407
			c-45.807,24.843-68.814,23.457-71.995,23.179c-0.163-9.846-1.515-20.207-4.043-31.054c10.044-8.643,17.581-20.109,21.374-33.162
			c7.795-4.495,17.618-11.783,27.507-20.246c16.902,2.485,32.3,6.31,43.666,10.869c12.46,4.999,20.007,10.862,20.704,16.087
			C497.781,265.359,488.4,277.858,459.73,293.407z"/>
	</g>
</g>
<g>
</g>
<g>
</g>
<g>
</g>
<g>
</g>
<g>
</g>
<g>
</g>
<g>
</g>
<g>
</g>
<g>
</g>
<g>
</g>
<g>
</g>
<g>
</g>
<g>
</g>
<g>
</g>
<g>
</g>
</svg>
