<?xml version="1.0" ?><!DOCTYPE svg  PUBLIC '-//W3C//DTD SVG 1.1//EN'  'http://www.w3.org/Graphics/SVG/1.1/DTD/svg11.dtd'><svg enable-background="new 0 0 512 512" height="512px" id="Layer_1" version="1.1" viewBox="0 0 512 512" width="512px" xml:space="preserve" xmlns="http://www.w3.org/2000/svg" xmlns:xlink="http://www.w3.org/1999/xlink"><g id="Tumblr"><path d="M257,40.5c-119.294,0-216,96.708-216,216c0,119.294,96.706,216,216,216s216.002-96.706,216.002-216.002   C473.002,137.206,376.294,40.5,257,40.5z M353.328,391.502h-0.02c-13.034,6.114-24.84,10.446-35.422,12.916   c-10.594,2.48-22.014,3.712-34.3,3.712c-13.96,0-22.19-1.752-32.922-5.248c-10.712-3.534-19.868-8.594-27.418-15.072   c-7.59-6.538-12.828-13.498-15.772-20.822c-2.924-7.344-4.382-17.996-4.382-31.976V227.966h-41.468v-43.23   c11.992-3.888,25.892-9.48,34.418-16.756c8.594-7.286,15.438-16.018,20.616-26.228c5.168-10.17,8.752-23.136,10.692-38.898h43.416   v70.628h70.57v54.482h-70.57v78.278c0,17.712-0.226,27.92,1.634,32.922s6.538,10.19,11.636,13.192   c6.774,4.036,14.462,6.074,23.176,6.074c15.456,0,30.824-5.04,46.114-15.072v48.144L353.328,391.502L353.328,391.502z M257,0.5   C115.614,0.5,1,115.114,1,256.5s114.616,256,256,256s256-114.616,256-256S398.386,0.5,257,0.5z M257,484.502   c-125.922,0-228-102.08-228-228.002s102.08-228,228-228s228,102.078,228,228S382.922,484.502,257,484.502z"/></g></svg>