<?xml version="1.0" ?><!DOCTYPE svg  PUBLIC '-//W3C//DTD SVG 1.1//EN'  'http://www.w3.org/Graphics/SVG/1.1/DTD/svg11.dtd'><svg enable-background="new 0 0 24 24" height="24px" id="Layer_1" version="1.1" viewBox="0 0 24 24" width="24px" xml:space="preserve" xmlns="http://www.w3.org/2000/svg" xmlns:xlink="http://www.w3.org/1999/xlink"><g><path d="M9.8,9.8l2.4,5l10.5-3.1c-1.2-1.4-5.2-4.9-14.1-3.3l-0.2,0C8.2,8.4,8,8.3,7.9,8.1l-0.9-2L4.7,6.4l1,2.1   c0.1,0.1,0.1,0.3,0,0.4c0,0.1-0.1,0.2-0.3,0.3c-1.9,0.8-3.1,2-3.7,3.5c-0.8,2.1-0.2,4.2,0,5.1l9.4-2.8L8.6,9.6   c-0.1-0.1-0.1-0.3,0-0.4C8.7,9.1,8.8,9,9,8.9c1.7-0.3,3.2-0.4,4.4-0.3c0.1,0,0.2,0,0.3,0c4.1,0.3,5.2,2,5.2,2.1   c0.1,0.1,0.1,0.3,0,0.4c-0.1,0.1-0.2,0.3-0.3,0.3l-3.5,1c-0.2,0.1-0.5,0-0.6-0.3l-1.3-2.6C12.2,9.6,11.1,9.7,9.8,9.8z M8.2,14.2   c-0.1,0.1-0.2,0.2-0.3,0.3l-3.5,1c0,0-0.1,0-0.1,0c-0.2,0-0.4-0.1-0.5-0.3c0,0-1.1-2.7,2.1-4.8c0.1-0.1,0.3-0.1,0.4-0.1   c0.1,0,0.3,0.1,0.3,0.3l1.6,3.3C8.3,13.9,8.3,14,8.2,14.2z"/></g></svg>