<?xml version="1.0" ?><!DOCTYPE svg  PUBLIC '-//W3C//DTD SVG 1.1//EN'  'http://www.w3.org/Graphics/SVG/1.1/DTD/svg11.dtd'><svg enable-background="new 0 0 512 512" height="512px" id="Layer_1" version="1.1" viewBox="0 0 512 512" width="512px" xml:space="preserve" xmlns="http://www.w3.org/2000/svg" xmlns:xlink="http://www.w3.org/1999/xlink"><g id="Pinterest"><path d="M257,512c-141.386,0-256-114.614-256-256S115.614,0.001,257,0.001s256,114.614,256,255.998S398.386,512,257,512z    M257,28.002c-125.92,0-228,102.078-228,228s102.08,228.002,228,228.002s228-102.082,228-228.004S382.92,28.002,257,28.002z    M257,472.002c-21.45,0-42.15-3.172-61.708-8.994c6.02-10.104,19.34-33.41,23.576-48.626c2.726-9.804,15.656-60.574,15.656-60.574   c7.734,14.604,30.336,27.468,54.374,27.468c71.556,0,120.102-64.584,120.102-151.03c0-65.368-55.924-126.244-140.92-126.244   c-105.756,0-159.08,75.066-159.08,137.664c0,37.902,14.494,71.622,45.584,84.188c5.098,2.064,9.664,0.072,11.142-5.516   c1.028-3.866,3.46-13.622,4.546-17.686c1.49-5.526,0.912-7.466-3.202-12.282c-8.964-10.468-14.692-24.02-14.692-43.218   c0-55.69,42.088-105.548,109.594-105.548c59.776,0,92.616,36.16,92.616,84.452c0,63.542-28.404,117.168-70.568,117.168   c-23.286,0-40.718-19.066-35.13-42.45c6.69-27.916,19.65-58.046,19.65-78.196c0-18.04-9.78-33.084-30.02-33.084   c-23.806,0-42.928,24.38-42.928,57.04c0,20.802,7.1,34.87,7.1,34.87s-24.362,102.188-28.63,120.084   c-4.144,17.364-4.546,36.616-3.806,52.33C94.164,420.404,41,344.43,41,255.999c0-119.292,96.706-215.998,216-215.998   s216,96.706,216,215.998C473,375.296,376.292,472.002,257,472.002z"/></g></svg>