<?xml version="1.0" encoding="iso-8859-1"?>
<!-- Generator: Adobe Illustrator 19.0.0, SVG Export Plug-In . SVG Version: 6.00 Build 0)  -->
<svg version="1.1" id="Capa_1" xmlns="http://www.w3.org/2000/svg" xmlns:xlink="http://www.w3.org/1999/xlink" x="0px" y="0px"
	 viewBox="0 0 512 512" style="enable-background:new 0 0 512 512;" xml:space="preserve">
<path style="fill:#FF9478;" d="M366.054,395.751c-26.673-11.564-38.921-42.561-27.359-69.233
	c11.564-26.673,42.561-38.921,69.233-27.359c26.672,11.563,98.194,68.257,86.63,94.93
	C482.996,420.762,392.727,407.315,366.054,395.751z"/>
<path style="fill:#FF7956;" d="M407.929,299.16c-26.673-11.564-57.67,0.685-69.233,27.359c-0.856,1.975-1.566,3.975-2.165,5.988
	c15.23,15.277,36.227,24.66,59.066,24.66c3.697,0,7.44-0.249,11.123-0.741c14.531-1.94,35.804-8.756,56.417-17.776
	C443.827,320.633,420.722,304.706,407.929,299.16z"/>
<path style="fill:#FF3F62;" d="M402.629,325.792c-28.816,3.848-55.295-16.393-59.143-45.21
	c-3.848-28.816,16.393-55.295,45.21-59.143c28.816-3.848,119.329,7.843,123.177,36.659
	C515.72,286.916,431.445,321.945,402.629,325.792z"/>
<path style="fill:#D80027;" d="M388.684,221.433c-27.223,3.634-46.781,27.47-45.617,54.389c10.959,5.171,23.119,7.981,35.769,7.981
	c13.138,0,26.292-3.18,38.038-9.195c15.316-7.844,37.146-25.12,55.646-43.765C443.189,222.225,405.471,219.192,388.684,221.433z"/>
<path style="fill:#00DDC2;" d="M402.798,247.106c-25.876,13.251-57.595,3.017-70.847-22.859
	c-13.251-25.876-3.017-57.595,22.859-70.847c25.876-13.251,115.096-32.465,128.347-6.589
	C496.408,172.689,428.674,233.855,402.798,247.106z"/>
<path style="fill:#00CCB3;" d="M403.655,193.015c7.844-13.072,16.112-35.13,21.961-57.797
	c-27.745,3.064-57.568,11.402-70.807,18.182c-25.876,13.251-36.11,44.97-22.859,70.847c1.69,3.3,3.683,6.341,5.922,9.115
	C364.835,231.425,389.657,216.342,403.655,193.015z"/>
<path style="fill:#FFE477;" d="M377.155,177.115c-14.958,24.928-47.294,33.01-72.221,18.051
	c-24.928-14.958-33.01-47.294-18.051-72.221c14.958-24.928,80.533-88.404,105.462-73.446S392.113,152.186,377.155,177.115z"/>
<path style="fill:#FFEB99;" d="M331.779,144.459c10.058-16.76,42.996-50.946,71.077-67.002
	c-0.289-13.216-3.304-23.632-10.512-27.958c-24.928-14.958-90.503,48.517-105.462,73.446c-14.958,24.928-6.876,57.263,18.051,72.221
	c9.228,5.538,19.471,7.91,29.473,7.446C322.304,186.037,320.555,163.163,331.779,144.459z"/>
<g>
	<path style="fill:#FF9478;" d="M22.013,316.162l42.701,1.824l-15.571,29.987c-3.064,5.9-11.622,5.534-14.172-0.606L22.013,316.162z
		"/>
	<path style="fill:#FF9478;" d="M83.815,318.745l42.701,1.824l-15.571,29.987c-3.064,5.9-11.622,5.534-14.172-0.606L83.815,318.745z
		"/>
	<path style="fill:#FF9478;" d="M161.97,383.5l-41.26,11.153l5.792-33.289c1.139-6.549,9.41-8.784,13.694-3.701L161.97,383.5z"/>
	<path style="fill:#FF9478;" d="M102.272,399.695l-41.26,11.153l5.792-33.289c1.139-6.549,9.41-8.784,13.694-3.701L102.272,399.695z
		"/>
	<path style="fill:#FF9478;" d="M145.617,321.328l42.701,1.824l-15.571,29.987c-3.064,5.9-11.623,5.534-14.172-0.606
		L145.617,321.328z"/>
</g>
<path style="fill:#FFDAAA;" d="M88.787,216.742l-62.249,7.811c-15.971,2.004-27.589,16.141-26.463,32.197l3.746,53.373
	c0.913,13.002,11.43,23.251,24.45,23.828l212.534,9.42L33.409,400.133c-12.122,3.317-20.055,14.929-18.737,27.429l2.222,21.081
	c1.091,10.347,10.703,17.616,20.956,15.847l250.77-43.258c0,0,121.427-18.412,90.258-137.761
	c-0.928,0.66-101.293-103.828-101.293-103.828L88.787,216.742z"/>
<path style="fill:#FFC477;" d="M383.633,311.325c-0.633-8.616-2.15-17.875-4.756-27.855c-0.208,0.147-5.401-4.978-13.326-13.009
	l-79.525-6.438C286.025,264.023,310.417,339.254,383.633,311.325z"/>
<path style="fill:#FF3F62;" d="M3.821,310.121c0.913,13.002,11.43,23.251,24.45,23.829l58.325,2.585L75.264,218.437l0,0
	l-48.726,6.114c-15.971,2.004-27.589,16.141-26.463,32.197L3.821,310.121z"/>
<path style="fill:#57565C;" d="M26.216,272.434c0-10.884-9.697-19.707-21.66-19.707c-1.548,0-3.057,0.154-4.513,0.435
	c-0.056,1.183-0.052,2.378,0.033,3.587l2.478,35.301c0.66,0.056,1.327,0.092,2.004,0.092
	C16.519,292.142,26.216,283.318,26.216,272.434z"/>
<path style="fill:#FFC477;" d="M265.311,318.918L3.421,304.427l0.4,5.695c0.913,13.001,11.43,23.251,24.45,23.828l212.534,9.42
	L33.409,400.133c-12.122,3.317-20.055,14.929-18.737,27.429l0.996,9.449l241.453-67.391L265.311,318.918z"/>
<circle style="fill:#A4E276;" cx="341.124" cy="232.357" r="63.544"/>
<path style="fill:#91DC5A;" d="M392.642,261.103c-35.094,0-63.544-28.449-63.544-63.544c0-10.255,2.445-19.935,6.759-28.512
	c-32.626,2.682-58.273,29.992-58.273,63.309c0,35.094,28.449,63.544,63.544,63.544c24.839,0,46.334-14.26,56.785-35.032
	C396.174,261.012,394.419,261.103,392.642,261.103z"/>
<path style="fill:#00DDC2;" d="M341.128,277.254c-24.756,0-44.897-20.14-44.897-44.896s20.141-44.896,44.897-44.896
	s44.896,20.14,44.896,44.896S365.884,277.254,341.128,277.254z"/>
<path style="fill:#00CCB3;" d="M329.099,197.56c0-2.926,0.215-5.8,0.598-8.621c-19.237,5.07-33.465,22.61-33.465,43.417
	c0,24.756,20.141,44.896,44.897,44.896c14.708,0,27.785-7.108,35.979-18.07C349.524,252.251,329.099,227.294,329.099,197.56z"/>
<circle style="fill:#FF3F62;" cx="341.124" cy="232.357" r="20.286"/>
<path style="fill:#D80027;" d="M331.414,214.546c-6.299,3.443-10.572,10.127-10.572,17.81c0,11.203,9.082,20.286,20.286,20.286
	c4.901,0,9.394-1.738,12.901-4.631C343.214,239.722,335.149,228.038,331.414,214.546z"/>
<circle style="fill:#FFFFFF;" cx="201.957" cy="241.794" r="50.353"/>
<path style="fill:#DDFFFB;" d="M252.307,241.789c0-27.809-22.543-50.353-50.353-50.353c-27.809,0-50.353,22.543-50.353,50.353
	c0,3.557,0.374,7.027,1.076,10.375c19.889,2.622,43.274,4.781,66.366,4.782c0.006,0,0.009,0,0.016,0
	c11.287,0,21.732-0.509,31.366-1.527C251.642,251.083,252.307,246.515,252.307,241.789z"/>
<path style="fill:#FF3F62;" d="M201.955,273.494c-17.482,0-31.706-14.223-31.706-31.706c0-17.484,14.224-31.707,31.706-31.707
	s31.706,14.223,31.706,31.707C233.661,259.272,219.437,273.494,201.955,273.494z"/>
<path style="fill:#D80027;" d="M233.661,241.79c0-17.484-14.224-31.707-31.706-31.707s-31.706,14.223-31.706,31.707
	c0,4.519,0.957,8.818,2.669,12.712c14.727,1.453,30.493,2.444,46.125,2.445c0.006,0,0.009,0,0.016,0
	c3.702,0,7.304-0.061,10.827-0.17C232.293,252.311,233.661,247.207,233.661,241.79z"/>
<path style="fill:#3E3D42;" d="M201.955,256.508c-7.201,0-13.06-5.859-13.06-13.059c0-7.201,5.859-13.06,13.06-13.06
	s13.06,5.859,13.06,13.06C215.014,250.649,209.155,256.508,201.955,256.508z"/>
<path style="fill:#2D2D30;" d="M201.748,243.449c0-4.865,2.678-9.109,6.633-11.356c-1.9-1.08-4.09-1.704-6.426-1.704
	c-7.201,0-13.06,5.859-13.06,13.06c0,7.2,5.859,13.059,13.06,13.059c2.336,0,4.527-0.624,6.426-1.704
	C204.426,252.557,201.748,248.313,201.748,243.449z"/>
<circle style="fill:#FF3F62;" cx="265.313" cy="179.643" r="48.48"/>
<path style="fill:#D80027;" d="M265.31,131.159c-3.673,0-7.244,0.421-10.683,1.195c21.634,4.868,37.799,24.184,37.799,47.286
	c0,23.104-16.166,42.42-37.799,47.287c3.439,0.774,7.01,1.195,10.683,1.195c26.776,0,48.482-21.706,48.482-48.482
	C313.792,152.865,292.086,131.159,265.31,131.159z"/>
<path style="fill:#FFE477;" d="M313.792,172.015c0,0-84.021-11.362-225.005,44.725C88.787,218.888,335.289,275.937,313.792,172.015z
	"/>
<path style="fill:#FFDA44;" d="M313.792,172.015c0,0-7.693-1.036-22.305-0.935c-12.602,46.615-105.653,42.008-168.05,32.797
	c-11.132,3.837-22.68,8.102-34.649,12.864C88.787,218.888,335.289,275.937,313.792,172.015z"/>
<circle style="fill:#00DDC2;" cx="252.302" cy="342.092" r="38.898"/>
<path style="fill:#00CCB3;" d="M252.308,369.734c-15.244,0-27.646-12.401-27.646-27.645c0-15.245,12.402-27.646,27.646-27.646
	c15.244,0,27.645,12.401,27.645,27.646C279.953,357.333,267.551,369.734,252.308,369.734z"/>
<circle style="fill:#FFE477;" cx="252.302" cy="342.092" r="17.344"/>
<path style="fill:#FFDA44;" d="M249.996,334.177c0-3.472,1.03-6.697,2.787-9.409c-0.16-0.004-0.315-0.024-0.476-0.024
	c-9.579,0-17.344,7.766-17.344,17.344c0,9.579,7.765,17.344,17.344,17.344c6.108,0,11.467-3.164,14.557-7.935
	C257.507,351.243,249.996,343.595,249.996,334.177z"/>
<g>
</g>
<g>
</g>
<g>
</g>
<g>
</g>
<g>
</g>
<g>
</g>
<g>
</g>
<g>
</g>
<g>
</g>
<g>
</g>
<g>
</g>
<g>
</g>
<g>
</g>
<g>
</g>
<g>
</g>
</svg>
